<?xml version="1.0" encoding="UTF-8"?>
<svg id="Layer_2" data-name="Layer 2" xmlns="http://www.w3.org/2000/svg" viewBox="0 0 209.79 257.1">
  <defs>
    <style>
      .cls-1 {
        fill: #cb9866;
        stroke: #000;
        stroke-miterlimit: 10;
      }
    </style>
  </defs>
  <g id="Layer_1-2" data-name="Layer 1">
    <path class="cls-1" d="M189.34,134.88c2.85,7.09,3.71,13.1,6.63,19.82-4.25,10.84-4.25,23.44-6.6,34.93-.54,1.11-.21,7.57-1.28,6.57-5.89-4.49-11.93-8.66-17.55-13.52-3.49-2.83-9.36-3.77-14.37-3.4-2.26,5.45-3.59,10.6-9.52,13.15-5.51,2.27-10.76,6.05-16.62,8.43-.8.32-1.79,1.57-2.13,2.52-6.79,17.76-13.37,34.05-22.15,53.18-.94.32-1.08-2.18-1.52-2.71-.4-1.1-.76-2.01-1.08-2.74-7.01-15.62-13.58-31.44-20.29-47.18-.98-2.23-5.02-3.25-6.96-4.2-8.3-4.36-14.84-10.36-18.13-19.57-2.28-1.93-8.7-.26-10.97.69-2.55,1.12-4.97,3.45-7.31,5.01-5.89,4.04-12.09,7.58-17.7,12.04-.35.27-.55.18-.58-.26-1.08-10.49-2.47-15.31-3.66-26.5-.53-4.2-1.45-8.2-2.35-12.29-.36-1.67-1.76-2.37-1.1-4.42,2.36-6.64,4.47-13.31,6.97-19.89-.9-1.28-2.89-1.91-4.24-2.81-13.49-6.96-8.05-2.81-2.08-21.49,3.17-9.33,7.26-18.92,10.07-28.23,2.27-5.16,7.55-6.45,10.9-10.76-2.43-1.72-5.1-2.75-7.86-4.66-6.41-3.77-20.96-12.31-23.67-14.32-1.84-1.45-5.97-2.92-2.16-3.98,8.3,4.41,19.18,11.85,24.94,14.93,14.27,7.79,9.05,10.36,10.77-7.6.06-1.38.74-2.31,2.04-2.78,5.19-1.88,10.11-3.59,15.55-5.71,7.7-2.25,18.62-9.02,26.05-5.23,2.44-2.05,3.93-5.86,5.67-8.88,5.08-10.78,10.75-21.27,15.61-32.15.21-.51.44-.51.67,0,3.93,8.67,8.21,17.18,12.36,25.74,2.19,4.12,4.39,8.71,7.11,12.47,15.21.58,28.77,8.39,42.75,12.27,2.48.72,2.81,1.97,3.08,4.5.42,4.01.82,8,1.2,11.99,11.52-4.83,23.42-13.81,35.37-19.42,1.31-.62,2.2-1.85,3.97-1.11.25.71-.05,1.46-.61,1.75-9.48,5.27-19.12,11.35-29.17,16.66-2.5,1.32-5,3.12-7.58,4.58-.16.08-.23.29-.16.45,3.13,2.82,6.49,5.43,9.8,8.05,5.01,3.89,5.82,10.94,7.79,16.51,1.71,4.84,3.18,9.78,4.94,14.58,1.84,5.41,4.18,11.16,5.55,17.07-2.34,3.59-7.87,4.79-10.42,7.91ZM102.84,5.6c-5.05,13.11-11.71,25.53-18.45,37.76,2.56,2.22,5.91,4.21,8.54,6.54,3.45-2.56,6.83-5.36,10.53-7.63.12-5.77-.75-11.87-.78-17.74-.06-1.39-.68-2.65.2-3.92,1.75-.98,2.51.4,2.51,1.97.33,5.79.56,11.64.7,17.56.01.56.25.95.71,1.17,3.16,1.53,6.2,3.28,9.11,5.23.15.1.37.07.48-.07.07-.15,4.12-4.69,4.12-4.87-2.11-6.55-6.98-12.07-9.42-18.61-2.86-5.62-6.01-12.26-8.26-17.41ZM150.16,75.53c1.9,2.89,3.89,4.74,7.07,1.66,3.5-2.49,7.06-4.89,10.69-7.18.13-3.31-.93-6.08-1.35-10.26-.35-2.36-.65-5.99-3.19-6.59-1.6-.38-3.18-.79-4.72-1.36-10.99-3.51-21.48-8.61-32.8-9.88-2.74-.25-3.27,1.24-4.79,2.96-.65,1.08-3.24,2.79-2.68,3.61,4.17,2.61,8.03,5.05,11.6,7.31,7.95,5.04,15.63,12.62,20.17,19.74ZM39.98,70.22c.62,1.41,2.73,2.58,3.81,3.21,4.66,2.76,9.13,5.44,13.41,8.02.52.31.94.22,1.27-.28,6.3-9.73,15.62-17.02,24.46-24.36,2.26-1.79,4.54-3.32,6.93-4.82.61-.38.65-.82.12-1.31-3.25-2.98-11.16-8.38-15.62-7.44-5.26,1.11-10.66,3.41-15.68,5.36-5.39,1.83-11.54,4.34-16.8,5.99-.9.29-1.37.95-1.42,1.98-.21,8.33-.63,9.23-.48,13.65ZM105.24,44.32c-12.46,9.14-22.93,15.03-35.02,27.16-1.65,1.52-3.42,3.41-5.32,5.65-.21.26-1.92,1.32-.69,1.48.69.09,1.87.01,3.54-.23,13.05-2.17,25.1,5.21,34.86,12.95.41.31.79.28,1.14-.09,1.72-1.8,3.46-2.92,5.41-4.42,10.66-7.78,26.52-12.05,38.92-9.1.42.27,1.12.35.45-.27-7.65-10.46-17.6-18.95-28.87-25.3-2.38-.89-13.34-10.12-14.42-7.82ZM156.96,81.3c11.99,10.91,23.03,26.27,20.74,43.11-.21,1,.19,1.43,1.07,1.91,11.49,8,5.5,7.34,17.69.76,1.06-2.65-1.19-5.18-2.11-8.69-3.06-8.1-5.16-16.25-8.3-24.65-1.17-3.14-2.22-9.46-4.81-11.58-4.09-3.03-7.88-7.2-12.04-9.77-3.27,2.23-6.59,4.4-9.98,6.51-.77.63-2.51,1.4-2.25,2.41ZM55.15,83.05c-5.89-2.75-11.22-7.31-17.1-9.71-2.85,2.26-5.99,4.26-8.77,6.57-2.63,2.18-3.6,7.49-4.63,10.68-1.59,4.9-3.58,9.47-5.28,14.25-2.48,6.55-4.56,13.48-7.48,19.81-.51.57-.43,1.04.23,1.41,4.67,2.72,9.53,5.32,14.48,7.56,1.64-1.45,2.94-3.39,4.75-4.64,1.39-1.25,3.45-1.99,4.65-3.31-.25-4.7,0-8.97,1.36-13.87,2.37-8.44,3.54-11.17,7.94-17.49,2.97-3.82,6.28-7.37,9.94-10.65.19-.16.15-.49-.08-.6ZM93.26,108.44c0,.41,12.36,11.84,12.54,12.15.13.12.34.13.48.02,10-8.26,18.6-18.38,28.58-26.7,1.36-1.63,8.85-7.01,14.41-12.66-8.7-4.24-21.78-1.07-30.78,3.05-10.81,4.95-18.81,14.18-25.55,23.75-.11.22.29.2.33.4ZM60.94,83.64c10.3,7.07,20.42,14.98,30.15,22.51,2.95-4.18,5.89-8.1,9.36-12.02,1.62-1.85-8.72-6.71-10.2-8.15-7.45-4.87-17.87-6.49-27.03-4.5-.68.14-3.58,1.2-2.28,2.16ZM156.07,83.93c-.64-.47-3.03-3.15-3.75-2.33-3,7.44-5.32,15.27-9.06,22.41-3.97,8.14-7.59,12.86-11.48,19.08,7.85,14.21,17.09,33.95,24.31,49.94.1.22.43.29.59.1,6.5-6.11,10.94-14.05,11.98-22.96,1.19-10.2,6.24-21.07,6.77-31-.72-13.37-9.27-25.95-19.36-35.25ZM55.85,173.78c.38,2.29,1.86-1.69,1.8-2.21,7.35-23.39,17.6-43.29,31.33-62.86-1.04-2.49-3.97-4.16-6.01-5.83-7.89-6.58-16.2-12.22-24.85-17.81-9.86,6.75-16.38,17.57-18.88,29.55-1.19,5.01-.57,9.05.98,14.44,5.43,17.72,7.38,28.5,15.62,44.72ZM146.46,87.36c-7.07,5.66-13.56,11.96-20.35,18-1.21,1.08-2.1,1.86-2.67,3.43,1.9,3.76,3.9,7.94,6.37,11.23.14.19.46.18.59-.03,4.2-6.41,8.09-13,11.67-19.78,1.8-3.58,3.9-8.7,5.19-13.3-.42-.38-.68-.23-.79.46ZM80.76,127.1c7.95,5.45,16.36,10.17,24.01,15.68,1.74.85.65-1.57.57-2.33-2.5-20.8,1.43-15.78-13.75-29.96-.15-.17-.45-.14-.57.06-1.77,2.78-3.6,5.52-5.49,8.22-1.83,2.61-3.46,5.23-4.88,7.84-.09.16-.04.38.11.48ZM120.72,110.76c-4.33,4.3-8.61,8.81-13.63,12.34-.64.52-.91,1.18-.81,1.98.19.27,1.9,16.47,2.4,16.54,2.2-.96,21.91-17.05,19.42-18.78-2.33-3.97-4.58-7.99-6.75-12.06-.2-.37-.41-.38-.63-.02ZM138.38,141.62c-.41-.13-.37-.46-.58-.91-2.17-4.47-4.47-8.9-6.5-13.44-.24-.53-.91-.69-1.36-.33-4.26,3.44-7.92,7.97-11.31,10.14-.02.01-.03.02-.05.03-2.58,1.97-5.55,4.16-7.34,6.52-.22.29-.25.68-.06.99,4.95,8.33,11.16,14.15,18.41,21.67,5.97,5.9,15.22,7,23.1,9.56,1.63.39.61-2.1.33-2.89,0-.02-.01-.03-.02-.05-4.51-10.66-9.39-21.11-14.62-31.29ZM30.23,134.95c3.27.38,4.3,2.07,6.48,4.16.18.18,5.34,4.35,4.09,1.17-1.8-4.52-2.01-8.72-4.15-12.65-.89-.33-.98,1.4-1.75,1.76-.6.79-6.22,5.29-4.66,5.55ZM184.53,133.8c0-.61-.3-.87-.88-.77-1.39-2.08-4.34-2.18-5.54-4.73-1.43-2.37-2.98,7.17-3.62,8.13-.23.61-1.42,3.23.44,2.38,3.07-2.34,6.58-2.53,9.6-5ZM102.81,144.43c-7.61-5.23-15.54-9.62-23.26-14.84-.76-.2-1.22.83-1.69,1.5-2.2,4.02-4.48,8.07-6.33,12.15-4.9,10.21-8.89,21.6-12.14,32.54-.28.81-.04,1.06.73.75,16.72-5.42,29.4-15.92,40.58-28.62.53-.79,2.51-2.39,2.11-3.48ZM24.31,135.44c-2.75,4.78-4.47,10.87-6.43,16.2-.46,1.46-.82,3.15-.53,4.45,1.64,7.28,2.73,14.62,4.14,21.94,3.89,18.35-2.36,17.76,14.57,7,5.24-3.39,10.14-8.38,16.4-8.37.64,0,2.61-.03,2-.68-5.43-8.48-9.11-18.77-11.67-28.63-1.16-3.36-5.97-4.43-8.61-6.61-.59-.93-6.52-4.82-9.87-5.3ZM185.8,191.21c1.12.37.81-3.27,1.12-4.07,1.01-8.45,2.2-16.07,4.1-24.58,2.57-8.02,2.02-9.51-1.78-19.28-.7-1.16-1.72-7.61-3.28-7.92-3.06,2.01-8.74,5.75-12.45,5.97-3.46,14.22-3.96,23.76-15.8,34.57-.98,1.1,3.88.63,4.52.97,9.61,1.38,15.73,9.27,23.57,14.33ZM102.21,150.33c-4.5,5.04-17.71,18.28-27.05,22.54-4.32,3.08-10.05,3.09-14.51,6.92,4.91,16.1,23.72,20.96,38.26,24.79,2.91.77,3.91,1.7,7.2.62,9.83-3.53,15.81-4.54,24.32-7.31,5.06-2.81,10.19-5.46,15.41-7.96,1.89-.91,3.37-2.2,4.43-3.88.27-.42,5.06-9.87,1.94-8.48-8.29-1.38-17.94-2.87-24.05-9.03-7.27-6.78-13.78-14.19-19.37-22.42-1.52-2.32-5.23,3.23-6.57,4.2ZM104.22,208.74c-3.14-1.33-7.83-2.13-11.57-3.37-1.2-.1-6.93-3.26-6.09.21,5.6,13.85,12.38,29.01,18.14,43.09.51,5.28,6.1-10.91,6.57-11.4,4.49-10.99,9.39-21.52,13.36-32.58.83-1.41.48-3.02-1.77-2.08-2.5.82-5.03,1.53-7.59,2.14,1.02-.18-10.79,3.97-11.04,3.98Z"/>
  </g>
</svg>