<?xml version="1.0" encoding="UTF-8"?>
<svg id="Layer_2" data-name="Layer 2" xmlns="http://www.w3.org/2000/svg" viewBox="0 0 819.82 1075.05">
  <defs>
    <style>
      .cls-1 {
        fill: #d5ac5a;
      }

      .cls-2 {
        fill: #cb9866;
      }

      .cls-2, .cls-3, .cls-4 {
        stroke-miterlimit: 10;
      }

      .cls-2, .cls-4 {
        stroke: #000;
      }

      .cls-3 {
        fill: #231f20;
        stroke: #cb9866;
      }

      .cls-4 {
        fill: #fff;
      }
    </style>
  </defs>
  <g id="Layer_1-2" data-name="Layer 1">
    <path class="cls-1" d="M534.5,741.22c7.82,19.44,10.17,35.92,18.17,54.35-11.65,29.74-11.66,64.28-18.09,95.81-1.48,3.04-.58,20.77-3.5,18.03-16.16-12.31-32.71-23.74-48.12-37.08-9.57-7.77-25.67-10.34-39.4-9.31-6.2,14.95-9.84,29.07-26.11,36.06-15.13,6.23-29.51,16.61-45.57,23.12-2.2.89-4.9,4.3-5.84,6.91-18.63,48.7-36.67,93.4-60.76,145.86-2.57.89-2.97-5.99-4.17-7.44-1.09-3.01-2.08-5.51-2.97-7.51-19.24-42.85-37.23-86.21-55.65-129.4-2.68-6.11-13.78-8.91-19.08-11.51-22.76-11.97-40.69-28.4-49.71-53.67-6.25-5.3-23.87-.71-30.08,1.89-6.98,3.07-13.62,9.46-20.04,13.73-16.16,11.09-33.15,20.79-48.53,33.01-.97.73-1.51.49-1.6-.72-2.96-28.76-6.77-41.98-10.03-72.68-1.45-11.53-3.98-22.48-6.43-33.7-1-4.57-4.84-6.49-3.02-12.11,6.46-18.21,12.26-36.51,19.13-54.55-2.46-3.5-7.93-5.24-11.64-7.7-37-19.1-22.08-7.72-5.71-58.95,8.69-25.59,19.9-51.9,27.62-77.43,6.24-14.15,20.69-17.7,29.9-29.5-6.66-4.72-13.99-7.56-21.57-12.77-17.58-10.34-57.49-33.76-64.91-39.28-5.06-3.98-16.36-8.01-5.92-10.91,22.76,12.09,52.61,32.49,68.4,40.95,39.15,21.36,24.82,28.42,29.55-20.83.17-3.79,2.04-6.33,5.6-7.62,14.24-5.16,27.73-9.84,42.64-15.65,21.12-6.18,51.05-24.73,71.45-14.35,6.69-5.63,10.77-16.07,15.56-24.37,13.92-29.56,29.47-58.34,42.8-88.17.59-1.4,1.2-1.41,1.83-.02,10.78,23.78,22.52,47.11,33.89,70.6,6.01,11.31,12.05,23.89,19.49,34.21,41.71,1.59,78.92,23.02,117.25,33.66,6.79,1.96,7.72,5.39,8.45,12.33,1.15,10.99,2.25,21.95,3.3,32.87,31.6-13.24,64.22-37.88,97-53.25,3.58-1.69,6.04-5.06,10.89-3.04.7,1.95-.13,4-1.67,4.8-26.01,14.44-52.44,31.12-80.01,45.69-6.86,3.63-13.71,8.55-20.79,12.55-.43.23-.63.8-.43,1.24,8.58,7.74,17.8,14.9,26.89,22.09,13.75,10.68,15.96,30,21.36,45.28,4.7,13.28,8.73,26.82,13.54,39.98,5.05,14.85,11.46,30.6,15.23,46.81-6.4,9.84-21.58,13.14-28.59,21.69ZM297.25,386.65c-13.85,35.97-32.12,70.03-50.61,103.55,7.03,6.08,16.2,11.54,23.42,17.95,9.45-7.03,18.72-14.71,28.89-20.92.33-15.83-2.05-32.57-2.15-48.64-.15-3.8-1.86-7.26.56-10.75,4.8-2.7,6.89,1.08,6.89,5.4.89,15.87,1.53,31.93,1.91,48.17.03,1.53.69,2.6,1.96,3.22,8.67,4.21,16.99,8.99,24.98,14.34.41.28,1,.2,1.32-.18.19-.41,11.29-12.88,11.31-13.35-5.79-17.96-19.14-33.11-25.83-51.04-7.84-15.41-16.49-33.61-22.65-47.75ZM427.03,578.46c5.22,7.93,10.68,12.99,19.4,4.55,9.59-6.84,19.36-13.41,29.32-19.7.35-9.07-2.55-16.67-3.71-28.14-.96-6.46-1.79-16.44-8.76-18.07-4.38-1.03-8.73-2.16-12.94-3.74-30.13-9.62-58.9-23.62-89.95-27.1-7.52-.68-8.96,3.41-13.14,8.12-1.78,2.97-8.87,7.65-7.36,9.9,11.43,7.16,22.03,13.84,31.82,20.05,21.8,13.83,42.86,34.62,55.32,54.13ZM124.86,563.9c1.7,3.87,7.5,7.07,10.45,8.81,12.79,7.58,25.05,14.91,36.78,21.99,1.41.85,2.58.59,3.49-.78,17.28-26.69,42.85-46.67,67.08-66.8,6.21-4.91,12.45-9.11,19-13.22,1.69-1.05,1.8-2.25.33-3.58-8.91-8.16-30.6-22.98-42.84-20.41-14.43,3.04-29.24,9.35-43,14.69-14.8,5.03-31.64,11.91-46.07,16.44-2.47.81-3.76,2.61-3.89,5.42-.58,22.85-1.73,25.32-1.33,37.44ZM303.84,492.86c-34.17,25.08-62.89,41.23-96.05,74.48-4.51,4.18-9.37,9.35-14.58,15.5-.58.7-5.27,3.62-1.88,4.05,1.89.25,5.12.03,9.71-.64,35.79-5.95,68.84,14.29,95.61,35.52,1.11.85,2.16.77,3.13-.25,4.72-4.95,9.48-8.02,14.83-12.13,29.23-21.34,72.74-33.06,106.73-24.95,1.15.73,3.07.95,1.24-.75-20.99-28.69-48.26-51.97-79.18-69.39-6.53-2.44-36.58-27.76-39.56-21.44ZM445.68,594.28c32.89,29.92,63.15,72.04,56.88,118.24-.57,2.73.53,3.91,2.93,5.24,31.5,21.95,15.08,20.13,48.51,2.09,2.92-7.26-3.26-14.2-5.8-23.83-8.39-22.22-14.16-44.58-22.77-67.61-3.22-8.61-6.09-25.95-13.18-31.77-11.22-8.32-21.6-19.74-33.03-26.8-8.96,6.13-18.08,12.07-27.36,17.84-2.11,1.72-6.89,3.84-6.18,6.6ZM166.46,599.08c-16.15-7.54-30.78-20.04-46.91-26.63-7.81,6.21-16.43,11.69-24.06,18.01-7.2,5.97-9.86,20.55-12.7,29.28-4.37,13.44-9.82,25.96-14.49,39.08-6.81,17.96-12.5,36.97-20.52,54.32-1.39,1.55-1.18,2.85.63,3.88,12.8,7.45,26.15,14.6,39.72,20.73,4.5-3.98,8.07-9.31,13.02-12.73,3.81-3.41,9.46-5.47,12.76-9.08-.68-12.88-.02-24.59,3.72-38.03,6.51-23.14,9.72-30.64,21.79-47.98,8.15-10.47,17.24-20.21,27.25-29.21.51-.43.41-1.36-.21-1.64ZM270.98,668.71c-.03,1.14,33.89,32.47,34.38,33.32.35.33.93.36,1.31.06,27.44-22.65,51.02-50.42,78.37-73.24,3.73-4.46,24.28-19.22,39.53-34.73-23.87-11.63-59.75-2.94-84.42,8.38-29.65,13.58-51.58,38.88-70.07,65.12-.31.62.8.55.9,1.09ZM182.35,600.7c28.24,19.38,56.01,41.07,82.68,61.75,8.1-11.46,16.14-22.23,25.67-32.98,4.44-5.07-23.91-18.39-27.97-22.34-20.42-13.37-49.01-17.79-74.13-12.35-1.86.39-9.83,3.28-6.25,5.92ZM443.25,601.49c-1.76-1.29-8.31-8.64-10.28-6.38-8.22,20.4-14.6,41.89-24.86,61.45-10.9,22.32-20.82,35.27-31.49,52.33,21.54,38.96,46.88,93.12,66.67,136.97.26.62,1.18.78,1.63.27,17.83-16.76,30.01-38.52,32.86-62.96,3.27-27.97,17.13-57.79,18.57-85.01-1.98-36.67-25.41-71.18-53.1-96.67ZM168.38,847.9c1.04,6.29,5.11-4.63,4.93-6.05,20.15-64.14,48.26-118.73,85.92-172.41-2.84-6.83-10.89-11.4-16.47-16-21.65-18.04-44.44-33.52-68.14-48.84-27.03,18.51-44.93,48.18-51.77,81.05-3.26,13.75-1.57,24.81,2.68,39.61,14.89,48.59,20.23,78.17,42.85,122.64ZM416.88,610.9c-19.39,15.52-37.2,32.79-55.82,49.37-3.33,2.97-5.77,5.11-7.31,9.4,5.21,10.32,10.7,21.77,17.46,30.79.4.52,1.27.49,1.61-.08,11.51-17.59,22.18-35.67,32-54.24,4.94-9.83,10.68-23.87,14.23-36.49-1.15-1.04-1.87-.62-2.17,1.25ZM236.71,719.89c21.8,14.96,44.87,27.89,65.85,43.01,4.76,2.32,1.78-4.3,1.56-6.38-6.85-57.03,3.93-43.29-37.72-82.16-.42-.45-1.24-.38-1.56.16-4.85,7.63-9.86,15.14-15.05,22.55-5.02,7.17-9.48,14.34-13.39,21.51-.25.44-.11,1.03.31,1.31ZM346.31,675.06c-11.87,11.79-23.61,24.16-37.39,33.85-1.77,1.42-2.5,3.23-2.21,5.42.53.75,5.22,45.17,6.59,45.37,6.03-2.63,60.08-46.77,53.25-51.51-6.4-10.89-12.57-21.92-18.5-33.07-.55-1.02-1.13-1.04-1.74-.06ZM394.73,759.7c-1.13-.36-1-1.25-1.59-2.5-5.94-12.27-12.25-24.42-17.81-36.85-.65-1.45-2.48-1.9-3.72-.9-11.69,9.42-21.72,21.86-31.03,27.82-.04.03-.08.06-.12.09-7.06,5.39-15.22,11.41-20.14,17.88-.6.79-.68,1.87-.17,2.72,13.56,22.84,30.6,38.81,50.49,59.42,16.38,16.18,41.73,19.19,63.35,26.22,4.48,1.08,1.67-5.76.91-7.93-.02-.05-.03-.09-.05-.14-12.37-29.23-25.76-57.91-40.1-85.83ZM98.12,741.42c8.96,1.05,11.8,5.69,17.77,11.41.5.48,14.64,11.94,11.21,3.21-4.93-12.39-5.52-23.92-11.39-34.69-2.45-.9-2.69,3.84-4.8,4.84-1.65,2.16-17.05,14.52-12.79,15.23ZM521.3,738.27c-.02-1.67-.83-2.38-2.42-2.12-3.82-5.7-11.91-5.97-15.19-12.98-3.92-6.49-8.16,19.65-9.93,22.3-.64,1.66-3.9,8.86,1.21,6.52,8.41-6.41,18.05-6.94,26.33-13.72ZM297.18,767.41c-20.87-14.33-42.62-26.37-63.79-40.7-2.08-.55-3.35,2.29-4.63,4.12-6.03,11.02-12.29,22.12-17.36,33.32-13.45,28-24.39,59.23-33.3,89.23-.78,2.22-.11,2.91,2,2.07,45.86-14.85,80.63-43.65,111.29-78.5,1.44-2.17,6.89-6.57,5.79-9.54ZM81.9,742.77c-7.55,13.1-12.25,29.82-17.64,44.44-1.26,4.01-2.25,8.65-1.45,12.2,4.51,19.97,7.49,40.09,11.35,60.17,10.67,50.33-6.47,48.72,39.96,19.2,14.38-9.29,27.81-22.99,44.97-22.95,1.77-.01,7.16-.09,5.49-1.87-14.89-23.27-24.98-51.49-31.99-78.53-3.18-9.22-16.37-12.16-23.61-18.12-1.61-2.55-17.87-13.21-27.08-14.54ZM524.79,895.72c3.07,1.01,2.23-8.97,3.07-11.17,2.78-23.18,6.04-44.07,11.24-67.4,7.06-22,5.54-26.07-4.88-52.87-1.92-3.17-4.72-20.86-9-21.71-8.39,5.52-23.97,15.76-34.15,16.37-9.49,39.01-10.86,65.16-43.32,94.82-2.69,3.02,10.65,1.72,12.4,2.66,26.37,3.78,43.13,25.44,64.64,39.3ZM295.53,783.59c-12.34,13.81-48.58,50.14-74.18,61.83-11.84,8.45-27.56,8.48-39.81,18.97,13.46,44.17,65.05,57.48,104.92,67.99,7.99,2.11,10.73,4.66,19.75,1.71,26.95-9.68,43.36-12.44,66.69-20.05,13.87-7.69,27.95-14.97,42.26-21.82,5.19-2.49,9.24-6.03,12.15-10.63.73-1.16,13.87-27.08,5.32-23.27-22.75-3.77-49.2-7.88-65.96-24.76-19.95-18.6-37.78-38.92-53.13-61.5-4.17-6.37-14.35,8.85-18.01,11.53ZM301.05,943.78c-8.61-3.64-21.46-5.83-31.72-9.24-3.29-.27-18.99-8.94-16.71.58,15.37,37.98,33.95,79.58,49.74,118.18,1.39,14.48,16.72-29.92,18.03-31.27,12.31-30.15,25.75-59.01,36.63-89.34,2.26-3.87,1.33-8.29-4.85-5.7-6.86,2.25-13.8,4.21-20.83,5.88,2.8-.49-29.58,10.89-30.29,10.91Z"/>
    <path class="cls-2" d="M189.34,149.58c2.85,7.09,3.71,13.1,6.63,19.82-4.25,10.84-4.25,23.44-6.6,34.93-.54,1.11-.21,7.57-1.28,6.57-5.89-4.49-11.93-8.66-17.55-13.52-3.49-2.83-9.36-3.77-14.37-3.4-2.26,5.45-3.59,10.6-9.52,13.15-5.51,2.27-10.76,6.05-16.62,8.43-.8.32-1.79,1.57-2.13,2.52-6.79,17.76-13.37,34.05-22.15,53.18-.94.32-1.08-2.18-1.52-2.71-.4-1.1-.76-2.01-1.08-2.74-7.01-15.62-13.58-31.44-20.29-47.18-.98-2.23-5.02-3.25-6.96-4.2-8.3-4.36-14.84-10.36-18.13-19.57-2.28-1.93-8.7-.26-10.97.69-2.55,1.12-4.97,3.45-7.31,5.01-5.89,4.04-12.09,7.58-17.7,12.04-.35.27-.55.18-.58-.26-1.08-10.49-2.47-15.31-3.66-26.5-.53-4.2-1.45-8.2-2.35-12.29-.36-1.67-1.76-2.37-1.1-4.42,2.36-6.64,4.47-13.31,6.97-19.89-.9-1.28-2.89-1.91-4.24-2.81-13.49-6.96-8.05-2.81-2.08-21.49,3.17-9.33,7.26-18.92,10.07-28.23,2.27-5.16,7.55-6.45,10.9-10.76-2.43-1.72-5.1-2.75-7.86-4.66-6.41-3.77-20.96-12.31-23.67-14.32-1.84-1.45-5.97-2.92-2.16-3.98,8.3,4.41,19.18,11.85,24.94,14.93,14.27,7.79,9.05,10.36,10.77-7.6.06-1.38.74-2.31,2.04-2.78,5.19-1.88,10.11-3.59,15.55-5.71,7.7-2.25,18.62-9.02,26.05-5.23,2.44-2.05,3.93-5.86,5.67-8.88,5.08-10.78,10.75-21.27,15.61-32.15.21-.51.44-.51.67,0,3.93,8.67,8.21,17.18,12.36,25.74,2.19,4.12,4.39,8.71,7.11,12.47,15.21.58,28.77,8.39,42.75,12.27,2.48.72,2.81,1.97,3.08,4.5.42,4.01.82,8,1.2,11.99,11.52-4.83,23.42-13.81,35.37-19.42,1.31-.62,2.2-1.85,3.97-1.11.25.71-.05,1.46-.61,1.75-9.48,5.27-19.12,11.35-29.17,16.66-2.5,1.32-5,3.12-7.58,4.58-.16.08-.23.29-.16.45,3.13,2.82,6.49,5.43,9.8,8.05,5.01,3.89,5.82,10.94,7.79,16.51,1.71,4.84,3.18,9.78,4.94,14.58,1.84,5.41,4.18,11.16,5.55,17.07-2.34,3.59-7.87,4.79-10.42,7.91ZM102.84,20.29c-5.05,13.11-11.71,25.53-18.45,37.76,2.56,2.22,5.91,4.21,8.54,6.54,3.45-2.56,6.83-5.36,10.53-7.63.12-5.77-.75-11.87-.78-17.74-.06-1.39-.68-2.65.2-3.92,1.75-.98,2.51.4,2.51,1.97.33,5.79.56,11.64.7,17.56.01.56.25.95.71,1.17,3.16,1.53,6.2,3.28,9.11,5.23.15.1.37.07.48-.07.07-.15,4.12-4.69,4.12-4.87-2.11-6.55-6.98-12.07-9.42-18.61-2.86-5.62-6.01-12.26-8.26-17.41ZM150.16,90.23c1.9,2.89,3.89,4.74,7.07,1.66,3.5-2.49,7.06-4.89,10.69-7.18.13-3.31-.93-6.08-1.35-10.26-.35-2.36-.65-5.99-3.19-6.59-1.6-.38-3.18-.79-4.72-1.36-10.99-3.51-21.48-8.61-32.8-9.88-2.74-.25-3.27,1.24-4.79,2.96-.65,1.08-3.24,2.79-2.68,3.61,4.17,2.61,8.03,5.05,11.6,7.31,7.95,5.04,15.63,12.62,20.17,19.74ZM39.98,84.92c.62,1.41,2.73,2.58,3.81,3.21,4.66,2.76,9.13,5.44,13.41,8.02.52.31.94.22,1.27-.28,6.3-9.73,15.62-17.02,24.46-24.36,2.26-1.79,4.54-3.32,6.93-4.82.61-.38.65-.82.12-1.31-3.25-2.98-11.16-8.38-15.62-7.44-5.26,1.11-10.66,3.41-15.68,5.36-5.39,1.83-11.54,4.34-16.8,5.99-.9.29-1.37.95-1.42,1.98-.21,8.33-.63,9.23-.48,13.65ZM105.24,59.02c-12.46,9.14-22.93,15.03-35.02,27.16-1.65,1.52-3.42,3.41-5.32,5.65-.21.26-1.92,1.32-.69,1.48.69.09,1.87.01,3.54-.23,13.05-2.17,25.1,5.21,34.86,12.95.41.31.79.28,1.14-.09,1.72-1.8,3.46-2.92,5.41-4.42,10.66-7.78,26.52-12.05,38.92-9.1.42.27,1.12.35.45-.27-7.65-10.46-17.6-18.95-28.87-25.3-2.38-.89-13.34-10.12-14.42-7.82ZM156.96,96c11.99,10.91,23.03,26.27,20.74,43.11-.21,1,.19,1.43,1.07,1.91,11.49,8,5.5,7.34,17.69.76,1.06-2.65-1.19-5.18-2.11-8.69-3.06-8.1-5.16-16.25-8.3-24.65-1.17-3.14-2.22-9.46-4.81-11.58-4.09-3.03-7.88-7.2-12.04-9.77-3.27,2.23-6.59,4.4-9.98,6.51-.77.63-2.51,1.4-2.25,2.41ZM55.15,97.75c-5.89-2.75-11.22-7.31-17.1-9.71-2.85,2.26-5.99,4.26-8.77,6.57-2.63,2.18-3.6,7.49-4.63,10.68-1.59,4.9-3.58,9.47-5.28,14.25-2.48,6.55-4.56,13.48-7.48,19.81-.51.57-.43,1.04.23,1.41,4.67,2.72,9.53,5.32,14.48,7.56,1.64-1.45,2.94-3.39,4.75-4.64,1.39-1.25,3.45-1.99,4.65-3.31-.25-4.7,0-8.97,1.36-13.87,2.37-8.44,3.54-11.17,7.94-17.49,2.97-3.82,6.28-7.37,9.94-10.65.19-.16.15-.49-.08-.6ZM93.26,123.14c0,.41,12.36,11.84,12.54,12.15.13.12.34.13.48.02,10-8.26,18.6-18.38,28.58-26.7,1.36-1.63,8.85-7.01,14.41-12.66-8.7-4.24-21.78-1.07-30.78,3.05-10.81,4.95-18.81,14.18-25.55,23.75-.11.22.29.2.33.4ZM60.94,98.34c10.3,7.07,20.42,14.98,30.15,22.51,2.95-4.18,5.89-8.1,9.36-12.02,1.62-1.85-8.72-6.71-10.2-8.15-7.45-4.87-17.87-6.49-27.03-4.5-.68.14-3.58,1.2-2.28,2.16ZM156.07,98.63c-.64-.47-3.03-3.15-3.75-2.33-3,7.44-5.32,15.27-9.06,22.41-3.97,8.14-7.59,12.86-11.48,19.08,7.85,14.21,17.09,33.95,24.31,49.94.1.22.43.29.59.1,6.5-6.11,10.94-14.05,11.98-22.96,1.19-10.2,6.24-21.07,6.77-31-.72-13.37-9.27-25.95-19.36-35.25ZM55.85,188.48c.38,2.29,1.86-1.69,1.8-2.21,7.35-23.39,17.6-43.29,31.33-62.86-1.04-2.49-3.97-4.16-6.01-5.83-7.89-6.58-16.2-12.22-24.85-17.81-9.86,6.75-16.38,17.57-18.88,29.55-1.19,5.01-.57,9.05.98,14.44,5.43,17.72,7.38,28.5,15.62,44.72ZM146.46,102.06c-7.07,5.66-13.56,11.96-20.35,18-1.21,1.08-2.1,1.86-2.67,3.43,1.9,3.76,3.9,7.94,6.37,11.23.14.19.46.18.59-.03,4.2-6.41,8.09-13,11.67-19.78,1.8-3.58,3.9-8.7,5.19-13.3-.42-.38-.68-.23-.79.46ZM80.76,141.8c7.95,5.45,16.36,10.17,24.01,15.68,1.74.85.65-1.57.57-2.33-2.5-20.8,1.43-15.78-13.75-29.96-.15-.17-.45-.14-.57.06-1.77,2.78-3.6,5.52-5.49,8.22-1.83,2.61-3.46,5.23-4.88,7.84-.09.16-.04.38.11.48ZM120.72,125.45c-4.33,4.3-8.61,8.81-13.63,12.34-.64.52-.91,1.18-.81,1.98.19.27,1.9,16.47,2.4,16.54,2.2-.96,21.91-17.05,19.42-18.78-2.33-3.97-4.58-7.99-6.75-12.06-.2-.37-.41-.38-.63-.02ZM138.38,156.32c-.41-.13-.37-.46-.58-.91-2.17-4.47-4.47-8.9-6.5-13.44-.24-.53-.91-.69-1.36-.33-4.26,3.44-7.92,7.97-11.31,10.14-.02.01-.03.02-.05.03-2.58,1.97-5.55,4.16-7.34,6.52-.22.29-.25.68-.06.99,4.95,8.33,11.16,14.15,18.41,21.67,5.97,5.9,15.22,7,23.1,9.56,1.63.39.61-2.1.33-2.89,0-.02-.01-.03-.02-.05-4.51-10.66-9.39-21.11-14.62-31.29ZM30.23,149.65c3.27.38,4.3,2.07,6.48,4.16.18.18,5.34,4.35,4.09,1.17-1.8-4.52-2.01-8.72-4.15-12.65-.89-.33-.98,1.4-1.75,1.76-.6.79-6.22,5.29-4.66,5.55ZM184.53,148.5c0-.61-.3-.87-.88-.77-1.39-2.08-4.34-2.18-5.54-4.73-1.43-2.37-2.98,7.17-3.62,8.13-.23.61-1.42,3.23.44,2.38,3.07-2.34,6.58-2.53,9.6-5ZM102.81,159.13c-7.61-5.23-15.54-9.62-23.26-14.84-.76-.2-1.22.83-1.69,1.5-2.2,4.02-4.48,8.07-6.33,12.15-4.9,10.21-8.89,21.6-12.14,32.54-.28.81-.04,1.06.73.75,16.72-5.42,29.4-15.92,40.58-28.62.53-.79,2.51-2.39,2.11-3.48ZM24.31,150.14c-2.75,4.78-4.47,10.87-6.43,16.2-.46,1.46-.82,3.15-.53,4.45,1.64,7.28,2.73,14.62,4.14,21.94,3.89,18.35-2.36,17.76,14.57,7,5.24-3.39,10.14-8.38,16.4-8.37.64,0,2.61-.03,2-.68-5.43-8.48-9.11-18.77-11.67-28.63-1.16-3.36-5.97-4.43-8.61-6.61-.59-.93-6.52-4.82-9.87-5.3ZM185.8,205.91c1.12.37.81-3.27,1.12-4.07,1.01-8.45,2.2-16.07,4.1-24.58,2.57-8.02,2.02-9.51-1.78-19.28-.7-1.16-1.72-7.61-3.28-7.92-3.06,2.01-8.74,5.75-12.45,5.97-3.46,14.22-3.96,23.76-15.8,34.57-.98,1.1,3.88.63,4.52.97,9.61,1.38,15.73,9.27,23.57,14.33ZM102.21,165.03c-4.5,5.04-17.71,18.28-27.05,22.54-4.32,3.08-10.05,3.09-14.51,6.92,4.91,16.1,23.72,20.96,38.26,24.79,2.91.77,3.91,1.7,7.2.62,9.83-3.53,15.81-4.54,24.32-7.31,5.06-2.81,10.19-5.46,15.41-7.96,1.89-.91,3.37-2.2,4.43-3.88.27-.42,5.06-9.87,1.94-8.48-8.29-1.38-17.94-2.87-24.05-9.03-7.27-6.78-13.78-14.19-19.37-22.42-1.52-2.32-5.23,3.23-6.57,4.2ZM104.22,223.44c-3.14-1.33-7.83-2.13-11.57-3.37-1.2-.1-6.93-3.26-6.09.21,5.6,13.85,12.38,29.01,18.14,43.09.51,5.28,6.1-10.91,6.57-11.4,4.49-10.99,9.39-21.52,13.36-32.58.83-1.41.48-3.02-1.77-2.08-2.5.82-5.03,1.53-7.59,2.14,1.02-.18-10.79,3.97-11.04,3.98Z"/>
    <path class="cls-3" d="M491.75,141.18c2.85,7.09,3.71,13.1,6.63,19.82-4.25,10.84-4.25,23.44-6.6,34.93-.54,1.11-.21,7.57-1.28,6.57-5.89-4.49-11.93-8.66-17.55-13.52-3.49-2.83-9.36-3.77-14.37-3.4-2.26,5.45-3.59,10.6-9.52,13.15-5.51,2.27-10.76,6.05-16.62,8.43-.8.32-1.79,1.57-2.13,2.52-6.79,17.76-13.37,34.05-22.15,53.18-.94.32-1.08-2.18-1.52-2.71-.4-1.1-.76-2.01-1.08-2.74-7.01-15.62-13.58-31.44-20.29-47.18-.98-2.23-5.02-3.25-6.96-4.2-8.3-4.36-14.84-10.36-18.13-19.57-2.28-1.93-8.7-.26-10.97.69-2.55,1.12-4.97,3.45-7.31,5.01-5.89,4.04-12.09,7.58-17.7,12.04-.35.27-.55.18-.58-.26-1.08-10.49-2.47-15.31-3.66-26.5-.53-4.2-1.45-8.2-2.35-12.29-.36-1.67-1.76-2.37-1.1-4.42,2.36-6.64,4.47-13.31,6.97-19.89-.9-1.28-2.89-1.91-4.24-2.81-13.49-6.96-8.05-2.81-2.08-21.49,3.17-9.33,7.26-18.92,10.07-28.23,2.27-5.16,7.55-6.45,10.9-10.76-2.43-1.72-5.1-2.75-7.86-4.66-6.41-3.77-20.96-12.31-23.67-14.32-1.84-1.45-5.97-2.92-2.16-3.98,8.3,4.41,19.18,11.85,24.94,14.93,14.27,7.79,9.05,10.36,10.77-7.6.06-1.38.74-2.31,2.04-2.78,5.19-1.88,10.11-3.59,15.55-5.71,7.7-2.25,18.62-9.02,26.05-5.23,2.44-2.05,3.93-5.86,5.67-8.88,5.08-10.78,10.75-21.27,15.61-32.15.21-.51.44-.51.67,0,3.93,8.67,8.21,17.18,12.36,25.74,2.19,4.12,4.39,8.71,7.11,12.47,15.21.58,28.77,8.39,42.75,12.27,2.48.72,2.81,1.97,3.08,4.5.42,4.01.82,8,1.2,11.99,11.52-4.83,23.42-13.81,35.37-19.42,1.31-.62,2.2-1.85,3.97-1.11.25.71-.05,1.46-.61,1.75-9.48,5.27-19.12,11.35-29.17,16.66-2.5,1.32-5,3.12-7.58,4.58-.16.08-.23.29-.16.45,3.13,2.82,6.49,5.43,9.8,8.05,5.01,3.89,5.82,10.94,7.79,16.51,1.71,4.84,3.18,9.78,4.94,14.58,1.84,5.41,4.18,11.16,5.55,17.07-2.34,3.59-7.87,4.79-10.42,7.91ZM405.24,11.9c-5.05,13.11-11.71,25.53-18.45,37.76,2.56,2.22,5.91,4.21,8.54,6.54,3.45-2.56,6.83-5.36,10.53-7.63.12-5.77-.75-11.87-.78-17.74-.06-1.39-.68-2.65.2-3.92,1.75-.98,2.51.4,2.51,1.97.33,5.79.56,11.64.7,17.56.01.56.25.95.71,1.17,3.16,1.53,6.2,3.28,9.11,5.23.15.1.37.07.48-.07.07-.15,4.12-4.69,4.12-4.87-2.11-6.55-6.98-12.07-9.42-18.61-2.86-5.62-6.01-12.26-8.26-17.41ZM452.56,81.83c1.9,2.89,3.89,4.74,7.07,1.66,3.5-2.49,7.06-4.89,10.69-7.18.13-3.31-.93-6.08-1.35-10.26-.35-2.36-.65-5.99-3.19-6.59-1.6-.38-3.18-.79-4.72-1.36-10.99-3.51-21.48-8.61-32.8-9.88-2.74-.25-3.27,1.24-4.79,2.96-.65,1.08-3.24,2.79-2.68,3.61,4.17,2.61,8.03,5.05,11.6,7.31,7.95,5.04,15.63,12.62,20.17,19.74ZM342.39,76.53c.62,1.41,2.73,2.58,3.81,3.21,4.66,2.76,9.13,5.44,13.41,8.02.52.31.94.22,1.27-.28,6.3-9.73,15.62-17.02,24.46-24.36,2.26-1.79,4.54-3.32,6.93-4.82.61-.38.65-.82.12-1.31-3.25-2.98-11.16-8.38-15.62-7.44-5.26,1.11-10.66,3.41-15.68,5.36-5.39,1.83-11.54,4.34-16.8,5.99-.9.29-1.37.95-1.42,1.98-.21,8.33-.63,9.23-.48,13.65ZM407.65,50.62c-12.46,9.14-22.93,15.03-35.02,27.16-1.65,1.52-3.42,3.41-5.32,5.65-.21.26-1.92,1.32-.69,1.48.69.09,1.87.01,3.54-.23,13.05-2.17,25.1,5.21,34.86,12.95.41.31.79.28,1.14-.09,1.72-1.8,3.46-2.92,5.41-4.42,10.66-7.78,26.52-12.05,38.92-9.1.42.27,1.12.35.45-.27-7.65-10.46-17.6-18.95-28.87-25.3-2.38-.89-13.34-10.12-14.42-7.82ZM459.36,87.6c11.99,10.91,23.03,26.27,20.74,43.11-.21,1,.19,1.43,1.07,1.91,11.49,8,5.5,7.34,17.69.76,1.06-2.65-1.19-5.18-2.11-8.69-3.06-8.1-5.16-16.25-8.3-24.65-1.17-3.14-2.22-9.46-4.81-11.58-4.09-3.03-7.88-7.2-12.04-9.77-3.27,2.23-6.59,4.4-9.98,6.51-.77.63-2.51,1.4-2.25,2.41ZM357.55,89.35c-5.89-2.75-11.22-7.31-17.1-9.71-2.85,2.26-5.99,4.26-8.77,6.57-2.63,2.18-3.6,7.49-4.63,10.68-1.59,4.9-3.58,9.47-5.28,14.25-2.48,6.55-4.56,13.48-7.48,19.81-.51.57-.43,1.04.23,1.41,4.67,2.72,9.53,5.32,14.48,7.56,1.64-1.45,2.94-3.39,4.75-4.64,1.39-1.25,3.45-1.99,4.65-3.31-.25-4.7,0-8.97,1.36-13.87,2.37-8.44,3.54-11.17,7.94-17.49,2.97-3.82,6.28-7.37,9.94-10.65.19-.16.15-.49-.08-.6ZM395.66,114.74c0,.41,12.36,11.84,12.54,12.15.13.12.34.13.48.02,10-8.26,18.6-18.38,28.58-26.7,1.36-1.63,8.85-7.01,14.41-12.66-8.7-4.24-21.78-1.07-30.78,3.05-10.81,4.95-18.81,14.18-25.55,23.75-.11.22.29.2.33.4ZM363.35,89.94c10.3,7.07,20.42,14.98,30.15,22.51,2.95-4.18,5.89-8.1,9.36-12.02,1.62-1.85-8.72-6.71-10.2-8.15-7.45-4.87-17.87-6.49-27.03-4.5-.68.14-3.58,1.2-2.28,2.16ZM458.48,90.23c-.64-.47-3.03-3.15-3.75-2.33-3,7.44-5.32,15.27-9.06,22.41-3.97,8.14-7.59,12.86-11.48,19.08,7.85,14.21,17.09,33.95,24.31,49.94.1.22.43.29.59.1,6.5-6.11,10.94-14.05,11.98-22.96,1.19-10.2,6.24-21.07,6.77-31-.72-13.37-9.27-25.95-19.36-35.25ZM358.25,180.08c.38,2.29,1.86-1.69,1.8-2.21,7.35-23.39,17.6-43.29,31.33-62.86-1.04-2.49-3.97-4.16-6.01-5.83-7.89-6.58-16.2-12.22-24.85-17.81-9.86,6.75-16.38,17.57-18.88,29.55-1.19,5.01-.57,9.05.98,14.44,5.43,17.72,7.38,28.5,15.62,44.72ZM448.86,93.66c-7.07,5.66-13.56,11.96-20.35,18-1.21,1.08-2.1,1.86-2.67,3.43,1.9,3.76,3.9,7.94,6.37,11.23.14.19.46.18.59-.03,4.2-6.41,8.09-13,11.67-19.78,1.8-3.58,3.9-8.7,5.19-13.3-.42-.38-.68-.23-.79.46ZM383.17,133.4c7.95,5.45,16.36,10.17,24.01,15.68,1.74.85.65-1.57.57-2.33-2.5-20.8,1.43-15.78-13.75-29.96-.15-.17-.45-.14-.57.06-1.77,2.78-3.6,5.52-5.49,8.22-1.83,2.61-3.46,5.23-4.88,7.84-.09.16-.04.38.11.48ZM423.13,117.06c-4.33,4.3-8.61,8.81-13.63,12.34-.64.52-.91,1.18-.81,1.98.19.27,1.9,16.47,2.4,16.54,2.2-.96,21.91-17.05,19.42-18.78-2.33-3.97-4.58-7.99-6.75-12.06-.2-.37-.41-.38-.63-.02ZM440.79,147.92c-.41-.13-.37-.46-.58-.91-2.17-4.47-4.47-8.9-6.5-13.44-.24-.53-.91-.69-1.36-.33-4.26,3.44-7.92,7.97-11.31,10.14-.02.01-.03.02-.05.03-2.58,1.97-5.55,4.16-7.34,6.52-.22.29-.25.68-.06.99,4.95,8.33,11.16,14.15,18.41,21.67,5.97,5.9,15.22,7,23.1,9.56,1.63.39.61-2.1.33-2.89,0-.02-.01-.03-.02-.05-4.51-10.66-9.39-21.11-14.62-31.29ZM332.64,141.25c3.27.38,4.3,2.07,6.48,4.16.18.18,5.34,4.35,4.09,1.17-1.8-4.52-2.01-8.72-4.15-12.65-.89-.33-.98,1.4-1.75,1.76-.6.79-6.22,5.29-4.66,5.55ZM486.94,140.1c0-.61-.3-.87-.88-.77-1.39-2.08-4.34-2.18-5.54-4.73-1.43-2.37-2.98,7.17-3.62,8.13-.23.61-1.42,3.23.44,2.38,3.07-2.34,6.58-2.53,9.6-5ZM405.22,150.73c-7.61-5.23-15.54-9.62-23.26-14.84-.76-.2-1.22.83-1.69,1.5-2.2,4.02-4.48,8.07-6.33,12.15-4.9,10.21-8.89,21.6-12.14,32.54-.28.81-.04,1.06.73.75,16.72-5.42,29.4-15.92,40.58-28.62.53-.79,2.51-2.39,2.11-3.48ZM326.72,141.75c-2.75,4.78-4.47,10.87-6.43,16.2-.46,1.46-.82,3.15-.53,4.45,1.64,7.28,2.73,14.62,4.14,21.94,3.89,18.35-2.36,17.76,14.57,7,5.24-3.39,10.14-8.38,16.4-8.37.64,0,2.61-.03,2-.68-5.43-8.48-9.11-18.77-11.67-28.63-1.16-3.36-5.97-4.43-8.61-6.61-.59-.93-6.52-4.82-9.87-5.3ZM488.21,197.51c1.12.37.81-3.27,1.12-4.07,1.01-8.45,2.2-16.07,4.1-24.58,2.57-8.02,2.02-9.51-1.78-19.28-.7-1.16-1.72-7.61-3.28-7.92-3.06,2.01-8.74,5.75-12.45,5.97-3.46,14.22-3.96,23.76-15.8,34.57-.98,1.1,3.88.63,4.52.97,9.61,1.38,15.73,9.27,23.57,14.33ZM404.62,156.63c-4.5,5.04-17.71,18.28-27.05,22.54-4.32,3.08-10.05,3.09-14.51,6.92,4.91,16.1,23.72,20.96,38.26,24.79,2.91.77,3.91,1.7,7.2.62,9.83-3.53,15.81-4.54,24.32-7.31,5.06-2.81,10.19-5.46,15.41-7.96,1.89-.91,3.37-2.2,4.43-3.88.27-.42,5.06-9.87,1.94-8.48-8.29-1.38-17.94-2.87-24.05-9.03-7.27-6.78-13.78-14.19-19.37-22.42-1.52-2.32-5.23,3.23-6.57,4.2ZM406.63,215.04c-3.14-1.33-7.83-2.13-11.57-3.37-1.2-.1-6.93-3.26-6.09.21,5.6,13.85,12.38,29.01,18.14,43.09.51,5.28,6.1-10.91,6.57-11.4,4.49-10.99,9.39-21.52,13.36-32.58.83-1.41.48-3.02-1.77-2.08-2.5.82-5.03,1.53-7.59,2.14,1.02-.18-10.79,3.97-11.04,3.98Z"/>
    <path class="cls-4" d="M799.37,134.88c2.85,7.09,3.71,13.1,6.63,19.82-4.25,10.84-4.25,23.44-6.6,34.93-.54,1.11-.21,7.57-1.28,6.57-5.89-4.49-11.93-8.66-17.55-13.52-3.49-2.83-9.36-3.77-14.37-3.4-2.26,5.45-3.59,10.6-9.52,13.15-5.51,2.27-10.76,6.05-16.62,8.43-.8.32-1.79,1.57-2.13,2.52-6.79,17.76-13.37,34.05-22.15,53.18-.94.32-1.08-2.18-1.52-2.71-.4-1.1-.76-2.01-1.08-2.74-7.01-15.62-13.58-31.44-20.29-47.18-.98-2.23-5.02-3.25-6.96-4.2-8.3-4.36-14.84-10.36-18.13-19.57-2.28-1.93-8.7-.26-10.97.69-2.55,1.12-4.97,3.45-7.31,5.01-5.89,4.04-12.09,7.58-17.7,12.04-.35.27-.55.18-.58-.26-1.08-10.49-2.47-15.31-3.66-26.5-.53-4.2-1.45-8.2-2.35-12.29-.36-1.67-1.76-2.37-1.1-4.42,2.36-6.64,4.47-13.31,6.97-19.89-.9-1.28-2.89-1.91-4.24-2.81-13.49-6.96-8.05-2.81-2.08-21.49,3.17-9.33,7.26-18.92,10.07-28.23,2.27-5.16,7.55-6.45,10.9-10.76-2.43-1.72-5.1-2.75-7.86-4.66-6.41-3.77-20.96-12.31-23.67-14.32-1.84-1.45-5.97-2.92-2.16-3.98,8.3,4.41,19.18,11.85,24.94,14.93,14.27,7.79,9.05,10.36,10.77-7.6.06-1.38.74-2.31,2.04-2.78,5.19-1.88,10.11-3.59,15.55-5.71,7.7-2.25,18.62-9.02,26.05-5.23,2.44-2.05,3.93-5.86,5.67-8.88,5.08-10.78,10.75-21.27,15.61-32.15.21-.51.44-.51.67,0,3.93,8.67,8.21,17.18,12.36,25.74,2.19,4.12,4.39,8.71,7.11,12.47,15.21.58,28.77,8.39,42.75,12.27,2.48.72,2.81,1.97,3.08,4.5.42,4.01.82,8,1.2,11.99,11.52-4.83,23.42-13.81,35.37-19.42,1.31-.62,2.2-1.85,3.97-1.11.25.71-.05,1.46-.61,1.75-9.48,5.27-19.12,11.35-29.17,16.66-2.5,1.32-5,3.12-7.58,4.58-.16.08-.23.29-.16.45,3.13,2.82,6.49,5.43,9.8,8.05,5.01,3.89,5.82,10.94,7.79,16.51,1.71,4.84,3.18,9.78,4.94,14.58,1.84,5.41,4.18,11.16,5.55,17.07-2.34,3.59-7.87,4.79-10.42,7.91ZM712.87,5.6c-5.05,13.11-11.71,25.53-18.45,37.76,2.56,2.22,5.91,4.21,8.54,6.54,3.45-2.56,6.83-5.36,10.53-7.63.12-5.77-.75-11.87-.78-17.74-.06-1.39-.68-2.65.2-3.92,1.75-.98,2.51.4,2.51,1.97.33,5.79.56,11.64.7,17.56.01.56.25.95.71,1.17,3.16,1.53,6.2,3.28,9.11,5.23.15.1.37.07.48-.07.07-.15,4.12-4.69,4.12-4.87-2.11-6.55-6.98-12.07-9.42-18.61-2.86-5.62-6.01-12.26-8.26-17.41ZM760.19,75.53c1.9,2.89,3.89,4.74,7.07,1.66,3.5-2.49,7.06-4.89,10.69-7.18.13-3.31-.93-6.08-1.35-10.26-.35-2.36-.65-5.99-3.19-6.59-1.6-.38-3.18-.79-4.72-1.36-10.99-3.51-21.48-8.61-32.8-9.88-2.74-.25-3.27,1.24-4.79,2.96-.65,1.08-3.24,2.79-2.68,3.61,4.17,2.61,8.03,5.05,11.6,7.31,7.95,5.04,15.63,12.62,20.17,19.74ZM650.01,70.22c.62,1.41,2.73,2.58,3.81,3.21,4.66,2.76,9.13,5.44,13.41,8.02.52.31.94.22,1.27-.28,6.3-9.73,15.62-17.02,24.46-24.36,2.26-1.79,4.54-3.32,6.93-4.82.61-.38.65-.82.12-1.31-3.25-2.98-11.16-8.38-15.62-7.44-5.26,1.11-10.66,3.41-15.68,5.36-5.39,1.83-11.54,4.34-16.8,5.99-.9.29-1.37.95-1.42,1.98-.21,8.33-.63,9.23-.48,13.65ZM715.27,44.32c-12.46,9.14-22.93,15.03-35.02,27.16-1.65,1.52-3.42,3.41-5.32,5.65-.21.26-1.92,1.32-.69,1.48.69.09,1.87.01,3.54-.23,13.05-2.17,25.1,5.21,34.86,12.95.41.31.79.28,1.14-.09,1.72-1.8,3.46-2.92,5.41-4.42,10.66-7.78,26.52-12.05,38.92-9.1.42.27,1.12.35.45-.27-7.65-10.46-17.6-18.95-28.87-25.3-2.38-.89-13.34-10.12-14.42-7.82ZM766.99,81.3c11.99,10.91,23.03,26.27,20.74,43.11-.21,1,.19,1.43,1.07,1.91,11.49,8,5.5,7.34,17.69.76,1.06-2.65-1.19-5.18-2.11-8.69-3.06-8.1-5.16-16.25-8.3-24.65-1.17-3.14-2.22-9.46-4.81-11.58-4.09-3.03-7.88-7.2-12.04-9.77-3.27,2.23-6.59,4.4-9.98,6.51-.77.63-2.51,1.4-2.25,2.41ZM665.18,83.05c-5.89-2.75-11.22-7.31-17.1-9.71-2.85,2.26-5.99,4.26-8.77,6.57-2.63,2.18-3.6,7.49-4.63,10.68-1.59,4.9-3.58,9.47-5.28,14.25-2.48,6.55-4.56,13.48-7.48,19.81-.51.57-.43,1.04.23,1.41,4.67,2.72,9.53,5.32,14.48,7.56,1.64-1.45,2.94-3.39,4.75-4.64,1.39-1.25,3.45-1.99,4.65-3.31-.25-4.7,0-8.97,1.36-13.87,2.37-8.44,3.54-11.17,7.94-17.49,2.97-3.82,6.28-7.37,9.94-10.65.19-.16.15-.49-.08-.6ZM703.29,108.44c0,.41,12.36,11.84,12.54,12.15.13.12.34.13.48.02,10-8.26,18.6-18.38,28.58-26.7,1.36-1.63,8.85-7.01,14.41-12.66-8.7-4.24-21.78-1.07-30.78,3.05-10.81,4.95-18.81,14.18-25.55,23.75-.11.22.29.2.33.4ZM670.97,83.64c10.3,7.07,20.42,14.98,30.15,22.51,2.95-4.18,5.89-8.1,9.36-12.02,1.62-1.85-8.72-6.71-10.2-8.15-7.45-4.87-17.87-6.49-27.03-4.5-.68.14-3.58,1.2-2.28,2.16ZM766.1,83.93c-.64-.47-3.03-3.15-3.75-2.33-3,7.44-5.32,15.27-9.06,22.41-3.97,8.14-7.59,12.86-11.48,19.08,7.85,14.21,17.09,33.95,24.31,49.94.1.22.43.29.59.1,6.5-6.11,10.94-14.05,11.98-22.96,1.19-10.2,6.24-21.07,6.77-31-.72-13.37-9.27-25.95-19.36-35.25ZM665.88,173.78c.38,2.29,1.86-1.69,1.8-2.21,7.35-23.39,17.6-43.29,31.33-62.86-1.04-2.49-3.97-4.16-6.01-5.83-7.89-6.58-16.2-12.22-24.85-17.81-9.86,6.75-16.38,17.57-18.88,29.55-1.19,5.01-.57,9.05.98,14.44,5.43,17.72,7.38,28.5,15.62,44.72ZM756.48,87.36c-7.07,5.66-13.56,11.96-20.35,18-1.21,1.08-2.1,1.86-2.67,3.43,1.9,3.76,3.9,7.94,6.37,11.23.14.19.46.18.59-.03,4.2-6.41,8.09-13,11.67-19.78,1.8-3.58,3.9-8.7,5.19-13.3-.42-.38-.68-.23-.79.46ZM690.79,127.1c7.95,5.45,16.36,10.17,24.01,15.68,1.74.85.65-1.57.57-2.33-2.5-20.8,1.43-15.78-13.75-29.96-.15-.17-.45-.14-.57.06-1.77,2.78-3.6,5.52-5.49,8.22-1.83,2.61-3.46,5.23-4.88,7.84-.09.16-.04.38.11.48ZM730.75,110.76c-4.33,4.3-8.61,8.81-13.63,12.34-.64.52-.91,1.18-.81,1.98.19.27,1.9,16.47,2.4,16.54,2.2-.96,21.91-17.05,19.42-18.78-2.33-3.97-4.58-7.99-6.75-12.06-.2-.37-.41-.38-.63-.02ZM748.41,141.62c-.41-.13-.37-.46-.58-.91-2.17-4.47-4.47-8.9-6.5-13.44-.24-.53-.91-.69-1.36-.33-4.26,3.44-7.92,7.97-11.31,10.14-.02.01-.03.02-.05.03-2.58,1.97-5.55,4.16-7.34,6.52-.22.29-.25.68-.06.99,4.95,8.33,11.16,14.15,18.41,21.67,5.97,5.9,15.22,7,23.1,9.56,1.63.39.61-2.1.33-2.89,0-.02-.01-.03-.02-.05-4.51-10.66-9.39-21.11-14.62-31.29ZM640.26,134.95c3.27.38,4.3,2.07,6.48,4.16.18.18,5.34,4.35,4.09,1.17-1.8-4.52-2.01-8.72-4.15-12.65-.89-.33-.98,1.4-1.75,1.76-.6.79-6.22,5.29-4.66,5.55ZM794.56,133.8c0-.61-.3-.87-.88-.77-1.39-2.08-4.34-2.18-5.54-4.73-1.43-2.37-2.98,7.17-3.62,8.13-.23.61-1.42,3.23.44,2.38,3.07-2.34,6.58-2.53,9.6-5ZM712.84,144.43c-7.61-5.23-15.54-9.62-23.26-14.84-.76-.2-1.22.83-1.69,1.5-2.2,4.02-4.48,8.07-6.33,12.15-4.9,10.21-8.89,21.6-12.14,32.54-.28.81-.04,1.06.73.75,16.72-5.42,29.4-15.92,40.58-28.62.53-.79,2.51-2.39,2.11-3.48ZM634.34,135.44c-2.75,4.78-4.47,10.87-6.43,16.2-.46,1.46-.82,3.15-.53,4.45,1.64,7.28,2.73,14.62,4.14,21.94,3.89,18.35-2.36,17.76,14.57,7,5.24-3.39,10.14-8.38,16.4-8.37.64,0,2.61-.03,2-.68-5.43-8.48-9.11-18.77-11.67-28.63-1.16-3.36-5.97-4.43-8.61-6.61-.59-.93-6.52-4.82-9.87-5.3ZM795.83,191.21c1.12.37.81-3.27,1.12-4.07,1.01-8.45,2.2-16.07,4.1-24.58,2.57-8.02,2.02-9.51-1.78-19.28-.7-1.16-1.72-7.61-3.28-7.92-3.06,2.01-8.74,5.75-12.45,5.97-3.46,14.22-3.96,23.76-15.8,34.57-.98,1.1,3.88.63,4.52.97,9.61,1.38,15.73,9.27,23.57,14.33ZM712.24,150.33c-4.5,5.04-17.71,18.28-27.05,22.54-4.32,3.08-10.05,3.09-14.51,6.92,4.91,16.1,23.72,20.96,38.26,24.79,2.91.77,3.91,1.7,7.2.62,9.83-3.53,15.81-4.54,24.32-7.31,5.06-2.81,10.19-5.46,15.41-7.96,1.89-.91,3.37-2.2,4.43-3.88.27-.42,5.06-9.87,1.94-8.48-8.29-1.38-17.94-2.87-24.05-9.03-7.27-6.78-13.78-14.19-19.37-22.42-1.52-2.32-5.23,3.23-6.57,4.2ZM714.25,208.74c-3.14-1.33-7.83-2.13-11.57-3.37-1.2-.1-6.93-3.26-6.09.21,5.6,13.85,12.38,29.01,18.14,43.09.51,5.28,6.1-10.91,6.57-11.4,4.49-10.99,9.39-21.52,13.36-32.58.83-1.41.48-3.02-1.77-2.08-2.5.82-5.03,1.53-7.59,2.14,1.02-.18-10.79,3.97-11.04,3.98Z"/>
  </g>
</svg>